<svg xmlns="http://www.w3.org/2000/svg" viewBox="0 0 421.66 144.92"><defs><style>.cls-1{fill:#3b3c43;}.cls-2{fill:#e62a32;}</style></defs><title>logo_line_cce</title><g id="Ebene_2" data-name="Ebene 2"><g id="Ebene_1-2" data-name="Ebene 1"><path class="cls-1" d="M141.46,118.19l.95.13-8.34,2.47a11.59,11.59,0,0,0,7.79,2.42l2.67-.15-6.46,4.39,1,.23a13.82,13.82,0,0,0,9.43-1.22l-4.68,5.92a10.65,10.65,0,0,0,8.32-2.52l.45-.39-2.16,6.21,1.32-.3a10.93,10.93,0,0,0,2.15-.74,10.26,10.26,0,0,0,1.54-.89l4.6-26.67h-3.44l.88-2.85a2.86,2.86,0,0,1,2.68-1.9l3.42,0,5.28,31.35a10.69,10.69,0,0,0,3.81,1.72l1.32.3-2.17-6.21.46.39a10.63,10.63,0,0,0,8.32,2.52l-4.68-5.92a13.82,13.82,0,0,0,9.43,1.22l1-.23-6.46-4.39,2.66.15c.23,0,.45,0,.67,0a11.61,11.61,0,0,0,7.13-2.44l-8.34-2.47.95-.13A13.73,13.73,0,0,0,188,116.5a13.58,13.58,0,0,0,4-3.41h-9.17l.85-.4a11.68,11.68,0,0,0,3.81-2.93,11.53,11.53,0,0,0,2.3-4.21l-7.21,2.36A14,14,0,0,0,186,98v0l-18.4,14.5h0l-2.85-11.83-4.5.07a5.24,5.24,0,0,0-3.23,1.13,2.12,2.12,0,0,0-.74.91l-1.79,5.87H158l-1.12,3.84h0L138.51,98v0a14,14,0,0,0,3.45,9.88l-7.2-2.36a11.65,11.65,0,0,0,6.11,7.14l.85.4h-9.18a13.79,13.79,0,0,0,8.92,5.1"/><polyline class="cls-1" points="162.18 144.92 159.62 140.95 162.22 114.14 164.81 140.99 162.18 144.92"/><path class="cls-1" d="M221.74,130.25v-1.79l7-9.36h-7v-1.89h9.43V119l-7,9.38h7v1.89Z"/><path class="cls-1" d="M234.77,118.46a1.25,1.25,0,0,1-.85-.29,1,1,0,0,1-.34-.79,1,1,0,0,1,.33-.79,1.28,1.28,0,0,1,.86-.29,1.33,1.33,0,0,1,.86.29,1,1,0,0,1,.34.79,1,1,0,0,1-.35.78A1.26,1.26,0,0,1,234.77,118.46Zm-1,11.79V120h2v10.29Z"/><path class="cls-1" d="M242,130.27,237.46,120h2.2l3.31,8.09,3.31-8.09h2.24L244,130.27Z"/><path class="cls-1" d="M251.19,118.46a1.25,1.25,0,0,1-.85-.29,1,1,0,0,1-.34-.79,1,1,0,0,1,.33-.79,1.28,1.28,0,0,1,.86-.29,1.33,1.33,0,0,1,.86.29,1,1,0,0,1,.34.79,1,1,0,0,1-.35.78A1.26,1.26,0,0,1,251.19,118.46Zm-1,11.79V120h2v10.29Z"/><path class="cls-1" d="M255,130.25V116.61h2v13.64Z"/><path class="cls-1" d="M264.31,130.39a3.9,3.9,0,0,1-2.93-1,4.72,4.72,0,0,1-.91-3.29v-4.62H259V120h1.5v-1.89l2-.44V120h3v1.56h-3v4.39a3.81,3.81,0,0,0,.47,2.22,1.92,1.92,0,0,0,1.65.64c.11,0,.39,0,.83-.09l.27,1.57A6.73,6.73,0,0,1,264.31,130.39Z"/><path class="cls-1" d="M272.16,130.45a5.19,5.19,0,0,1-3.85-1.46,5.9,5.9,0,0,1,0-7.75,5,5,0,0,1,3.76-1.49,5.12,5.12,0,0,1,2.8.75,4.52,4.52,0,0,1,1.75,2.08,6.51,6.51,0,0,1,.45,3h-8.18a3.15,3.15,0,0,0,.92,2.3,3.34,3.34,0,0,0,2.38.82,2.92,2.92,0,0,0,2.88-1.47l1.86.29A4.71,4.71,0,0,1,272.16,130.45ZM268.94,124h6.24a2.87,2.87,0,0,0-.92-2,3.1,3.1,0,0,0-2.16-.72,3.29,3.29,0,0,0-2.16.69A3,3,0,0,0,268.94,124Z"/><path class="cls-1" d="M284.29,130.45a4.8,4.8,0,0,1-3.66-1.51,5.84,5.84,0,0,1,0-7.68,4.83,4.83,0,0,1,3.66-1.51,5.14,5.14,0,0,1,3.11.88,4.77,4.77,0,0,1,1.68,2.65l-1.74.34a3.12,3.12,0,0,0-5.25-1.15,3.85,3.85,0,0,0-.88,2.63,3.8,3.8,0,0,0,.88,2.61,2.89,2.89,0,0,0,2.28,1,3,3,0,0,0,1.83-.56,3.08,3.08,0,0,0,1.11-1.59l1.72.35a4.48,4.48,0,0,1-1.65,2.6A5,5,0,0,1,284.29,130.45Z"/><path class="cls-1" d="M291.44,130.25V116.61h2v5.22a2.84,2.84,0,0,1,1.19-1.5,4.6,4.6,0,0,1,5.29.63,5.5,5.5,0,0,1,1.05,3.71v5.58h-2v-5.42a3.9,3.9,0,0,0-.67-2.51,2.61,2.61,0,0,0-2.1-.8,2.43,2.43,0,0,0-2.07.89,4.42,4.42,0,0,0-.67,2.65v5.19Z"/><path class="cls-1" d="M303.59,130.25V120h2v1.87a2.92,2.92,0,0,1,1.22-1.52,4,4,0,0,1,2.15-.54,3.88,3.88,0,0,1,3.14,1.22,5.63,5.63,0,0,1,1,3.68v5.58h-2v-5.42a3.85,3.85,0,0,0-.67-2.5,2.58,2.58,0,0,0-2.1-.81,2.38,2.38,0,0,0-2.07.9,4.43,4.43,0,0,0-.66,2.64v5.19Z"/><path class="cls-1" d="M316.73,118.46a1.25,1.25,0,0,1-.85-.29,1,1,0,0,1-.34-.79,1,1,0,0,1,.33-.79,1.28,1.28,0,0,1,.86-.29,1.31,1.31,0,0,1,.86.29,1,1,0,0,1,.34.79,1,1,0,0,1-.35.78A1.26,1.26,0,0,1,316.73,118.46Zm-1,11.79V120h2v10.29Z"/><path class="cls-1" d="M330.15,130.25h-2.69l-4.76-5.08v5.08h-2V116.61h2v8.08l4.55-4.73h2.68l-5.05,4.94Z"/><path class="cls-1" d="M336,130.45a5.2,5.2,0,0,1-3.85-1.46,5.93,5.93,0,0,1,0-7.75,5,5,0,0,1,3.76-1.49,5.12,5.12,0,0,1,2.8.75,4.54,4.54,0,0,1,1.76,2.08,6.38,6.38,0,0,1,.44,3h-8.18a3.16,3.16,0,0,0,.93,2.3,3.31,3.31,0,0,0,2.38.82,2.92,2.92,0,0,0,2.88-1.47l1.85.29A4.71,4.71,0,0,1,336,130.45ZM332.77,124H339a2.86,2.86,0,0,0-.91-2,3.13,3.13,0,0,0-2.16-.72,3.25,3.25,0,0,0-2.16.69A3,3,0,0,0,332.77,124Z"/><path class="cls-1" d="M343.38,130.25V120h2v1.72a2.52,2.52,0,0,1,.43-.79,2.66,2.66,0,0,1,.72-.64,2.63,2.63,0,0,1,1-.37,5.59,5.59,0,0,1,1.42,0l-.21,2a2.73,2.73,0,0,0-2.56.54,3.87,3.87,0,0,0-.84,2.78v5.1Z"/><path class="cls-1" d="M362.13,130.39a5.68,5.68,0,0,1-4.42-1.82,6.93,6.93,0,0,1-1.66-4.87,7.69,7.69,0,0,1,.77-3.49,5.59,5.59,0,0,1,2.16-2.35,6.1,6.1,0,0,1,3.21-.84q4.19,0,5.47,3.33l-2,.43a3.2,3.2,0,0,0-1.31-1.47,4.22,4.22,0,0,0-2.09-.47,3.66,3.66,0,0,0-3,1.34,6.23,6.23,0,0,0,0,7.1,3.68,3.68,0,0,0,3,1.32,3.84,3.84,0,0,0,2.77-1,4,4,0,0,0,1.1-2.83h-3.87V123h6c0,.22,0,.54,0,.94a6.57,6.57,0,0,1-1.64,4.71A5.94,5.94,0,0,1,362.13,130.39Z"/><path class="cls-1" d="M370.84,130.25V120h2v1.94a2.7,2.7,0,0,1,1.1-1.57,3.56,3.56,0,0,1,2-.56,3.2,3.2,0,0,1,2,.56,3.74,3.74,0,0,1,1.12,1.89,3.24,3.24,0,0,1,1.35-1.82,4.36,4.36,0,0,1,2.43-.65,3.18,3.18,0,0,1,2.8,1.24,7.13,7.13,0,0,1,.87,4v5.24h-2v-5.08a5.38,5.38,0,0,0-.56-2.82,2.05,2.05,0,0,0-1.84-.85,2.14,2.14,0,0,0-1.91.86,5,5,0,0,0-.59,2.77v5.12h-2v-5.06a5.74,5.74,0,0,0-.51-2.84,1.94,1.94,0,0,0-1.77-.83,2.11,2.11,0,0,0-1.91.92,5.49,5.49,0,0,0-.59,2.9v4.91Z"/><path class="cls-1" d="M394.84,130.49a4.28,4.28,0,0,1-2.22-.59,3.38,3.38,0,0,1-1.43-1.61v1.94h-2V116.61h2V122a3.34,3.34,0,0,1,1.42-1.62,4.31,4.31,0,0,1,2.21-.58,4.8,4.8,0,0,1,1.82.35,4.39,4.39,0,0,1,2.54,2.67,7.36,7.36,0,0,1,0,4.67,4.71,4.71,0,0,1-1,1.7,4.48,4.48,0,0,1-1.5,1A4.69,4.69,0,0,1,394.84,130.49Zm-.48-1.74a2.92,2.92,0,0,0,2.31-1,3.9,3.9,0,0,0,.87-2.67,3.79,3.79,0,0,0-.88-2.65,3.26,3.26,0,0,0-4.65,0,4.46,4.46,0,0,0,0,5.33A3,3,0,0,0,394.36,128.75Z"/><path class="cls-1" d="M402.19,130.25v-13h2.08v5.53h6.2v-5.53h2.08v13h-2.08v-5.71h-6.2v5.71Z"/><path class="cls-1" d="M50.05,64.07l8.72,15.05a39.24,39.24,0,1,1,.09-68l-8.76,15a21.85,21.85,0,1,0-.05,38"/><path class="cls-1" d="M106.89,64.07l8.72,15.05a39.24,39.24,0,1,1,.09-68l-8.76,15a21.85,21.85,0,1,0,0,38"/><path class="cls-2" d="M191.72,41c-.05-.54-.12-1.08-.2-1.62a39.24,39.24,0,1,0-19.27,39.7l-8.75-15a21.65,21.65,0,0,1-10.81,2.87,21.87,21.87,0,0,1-20.31-13.77h58.71a38.8,38.8,0,0,0,.64-4c.13-1.33.2-2.67.2-4a39,39,0,0,0-.21-4.06M131.58,39.4a21.86,21.86,0,0,1,42.22,0Z"/><path class="cls-1" d="M229.42,24.32a8.31,8.31,0,0,1-6.19-2.5,8.81,8.81,0,0,1-2.45-6.42A8.76,8.76,0,0,1,223.23,9a8.27,8.27,0,0,1,6.19-2.5q7,0,8.24,6.24l-4,.63a4,4,0,0,0-4.06-3.09,3.86,3.86,0,0,0-3.1,1.41,5.58,5.58,0,0,0-1.19,3.71,5.51,5.51,0,0,0,1.19,3.69,3.86,3.86,0,0,0,3.1,1.41,4,4,0,0,0,2.51-.81,4.15,4.15,0,0,0,1.49-2.24l4,.63a7.29,7.29,0,0,1-2.73,4.61A8.79,8.79,0,0,1,229.42,24.32Z"/><path class="cls-1" d="M248.54,24.38a9.91,9.91,0,0,1-3.29-.54,9.18,9.18,0,0,1-2.82-1.6,7.29,7.29,0,0,1-2-2.82,10.15,10.15,0,0,1-.75-4,10.67,10.67,0,0,1,.49-3.29,7.72,7.72,0,0,1,1.33-2.52,8.24,8.24,0,0,1,2-1.73,8.81,8.81,0,0,1,2.41-1,10.77,10.77,0,0,1,5.29,0,8.68,8.68,0,0,1,2.41,1,8.14,8.14,0,0,1,2,1.73,7.55,7.55,0,0,1,1.34,2.52,10.67,10.67,0,0,1,.49,3.29,11,11,0,0,1-.49,3.33,7.93,7.93,0,0,1-1.33,2.54,7.63,7.63,0,0,1-2,1.74,8.58,8.58,0,0,1-2.41,1A10.51,10.51,0,0,1,248.54,24.38Zm0-3.81a3.92,3.92,0,0,0,3.13-1.39,5.6,5.6,0,0,0,1.19-3.78,5.52,5.52,0,0,0-1.2-3.75,4,4,0,0,0-3.15-1.37,3.92,3.92,0,0,0-3.12,1.37,5.48,5.48,0,0,0-1.19,3.75,5.59,5.59,0,0,0,1.2,3.79A4,4,0,0,0,248.54,20.57Z"/><path class="cls-1" d="M260.62,24V6.84h4.56V9.59a4.58,4.58,0,0,1,2-2.26,6.43,6.43,0,0,1,3.33-.83,6.13,6.13,0,0,1,5,2q1.62,2,1.62,6.06V24h-4.56V15a5.48,5.48,0,0,0-.91-3.47,3.4,3.4,0,0,0-2.81-1.12,3.24,3.24,0,0,0-2.81,1.2,6.21,6.21,0,0,0-.88,3.66V24Z"/><path class="cls-1" d="M287.64,24.28A10.45,10.45,0,0,1,282.3,23a5.8,5.8,0,0,1-2.82-3.4l4.15-.68a3.33,3.33,0,0,0,1.52,1.56,5.33,5.33,0,0,0,2.52.56,4.68,4.68,0,0,0,2.36-.5,1.54,1.54,0,0,0,.84-1.39,1.25,1.25,0,0,0-.37-.92,2.65,2.65,0,0,0-1-.61,10,10,0,0,0-1.43-.39l-1.71-.35c-.59-.12-1.19-.25-1.78-.39a9.5,9.5,0,0,1-1.7-.6,6.85,6.85,0,0,1-1.43-.91,3.77,3.77,0,0,1-1-1.38,4.75,4.75,0,0,1-.35-1.95,4.44,4.44,0,0,1,2.1-3.71,9.14,9.14,0,0,1,5.28-1.41,9.71,9.71,0,0,1,4.83,1.18,5.43,5.43,0,0,1,2.73,3.14l-4.07.72a2.85,2.85,0,0,0-1.3-1.36,4.17,4.17,0,0,0-2.07-.5,4.35,4.35,0,0,0-2.21.47,1.48,1.48,0,0,0-.79,1.33,1.23,1.23,0,0,0,.37.91,2.51,2.51,0,0,0,1,.59,10.8,10.8,0,0,0,1.44.36l1.72.3c.6.1,1.2.22,1.8.35a8.78,8.78,0,0,1,1.71.56,6.07,6.07,0,0,1,1.44.87,3.58,3.58,0,0,1,1,1.35,4.73,4.73,0,0,1,.37,1.94,4.69,4.69,0,0,1-2.11,4.05A9.82,9.82,0,0,1,287.64,24.28Z"/><path class="cls-1" d="M306.12,24.25c-2.4,0-4.14-.55-5.25-1.64s-1.65-2.91-1.65-5.46V10.28h-2.43V6.84h2.43V3.75l4.58-1V6.84h4.69v3.44H303.8v6.44a5,5,0,0,0,.7,3.06,2.86,2.86,0,0,0,2.39.88c.15,0,.61-.05,1.38-.16l.6,3.45A11,11,0,0,1,306.12,24.25Z"/><path class="cls-1" d="M311.19,24V6.84h4.56V9.41a3.8,3.8,0,0,1,.69-1.17,4.78,4.78,0,0,1,1.14-1,4.92,4.92,0,0,1,1.71-.62,7.7,7.7,0,0,1,2.26,0l-.46,4.32a4.48,4.48,0,0,0-4,.75c-.91.83-1.37,2.22-1.37,4.2V24Z"/><path class="cls-1" d="M330.11,24.35a6.13,6.13,0,0,1-5-2q-1.62-2-1.62-6.06V6.84H328v9.05a5.55,5.55,0,0,0,.87,3.46,3.42,3.42,0,0,0,2.85,1.09,3.19,3.19,0,0,0,2.79-1.2,6.24,6.24,0,0,0,.87-3.65V6.84H340V24H335.4V21.26a4.5,4.5,0,0,1-2,2.25A6.34,6.34,0,0,1,330.11,24.35Z"/><path class="cls-1" d="M351.94,24.32a8.31,8.31,0,0,1-6.19-2.5,8.81,8.81,0,0,1-2.45-6.42A8.76,8.76,0,0,1,345.75,9a8.27,8.27,0,0,1,6.19-2.5q7,0,8.24,6.24l-4,.63a4,4,0,0,0-4.05-3.09A3.87,3.87,0,0,0,349,11.69a5.58,5.58,0,0,0-1.18,3.71A5.5,5.5,0,0,0,349,19.09a3.87,3.87,0,0,0,3.11,1.41,4,4,0,0,0,2.51-.81,4.14,4.14,0,0,0,1.48-2.24l4,.63a7.34,7.34,0,0,1-2.74,4.61A8.75,8.75,0,0,1,351.94,24.32Z"/><path class="cls-1" d="M371,24.25c-2.4,0-4.14-.55-5.25-1.64s-1.65-2.91-1.65-5.46V10.28h-2.43V6.84h2.43V3.75l4.58-1V6.84h4.69v3.44H368.7v6.44a5,5,0,0,0,.7,3.06,2.86,2.86,0,0,0,2.39.88c.15,0,.61-.05,1.38-.16l.6,3.45A11,11,0,0,1,371,24.25Z"/><path class="cls-1" d="M378.44,4.61A2.79,2.79,0,0,1,376.57,4a2.1,2.1,0,0,1-.74-1.69,2.09,2.09,0,0,1,.73-1.69A2.8,2.8,0,0,1,378.44,0a2.83,2.83,0,0,1,1.86.61,2,2,0,0,1,.75,1.69A2.09,2.09,0,0,1,380.29,4,2.78,2.78,0,0,1,378.44,4.61ZM376.16,24V6.84h4.52V24Z"/><path class="cls-1" d="M384.57,24V6.84h4.56V9.59a4.58,4.58,0,0,1,2-2.26,6.43,6.43,0,0,1,3.33-.83,6.13,6.13,0,0,1,5,2q1.62,2,1.62,6.06V24h-4.56V15a5.48,5.48,0,0,0-.91-3.47,3.4,3.4,0,0,0-2.81-1.12,3.24,3.24,0,0,0-2.81,1.2,6.21,6.21,0,0,0-.88,3.66V24Z"/><path class="cls-1" d="M412.82,30.1a10.49,10.49,0,0,1-5.43-1.29,6.71,6.71,0,0,1-3-3.69l4.35-1A3.73,3.73,0,0,0,410.29,26a4.69,4.69,0,0,0,2.56.69A4.11,4.11,0,0,0,416,25.51a5.45,5.45,0,0,0,1.07-3.72V20.18A4.26,4.26,0,0,1,415,22.39a7.25,7.25,0,0,1-3.38.76,8,8,0,0,1-3-.55,7.19,7.19,0,0,1-2.4-1.57,7.07,7.07,0,0,1-1.62-2.63,10.28,10.28,0,0,1-.59-3.57,10.45,10.45,0,0,1,.58-3.55,7.08,7.08,0,0,1,1.6-2.61,6.93,6.93,0,0,1,2.41-1.57,8.09,8.09,0,0,1,3-.54,7.31,7.31,0,0,1,3.4.76,4.25,4.25,0,0,1,2.09,2.27V6.84h4.55V21q0,4.77-2.17,7C418,29.37,415.81,30.1,412.82,30.1Zm-3.06-11.61a4.06,4.06,0,0,0,3.15,1.32A4,4,0,0,0,416,18.48a5.27,5.27,0,0,0,1.18-3.65A5.17,5.17,0,0,0,416,11.22a4.34,4.34,0,0,0-6.27,0,5.18,5.18,0,0,0-1.2,3.61A5.24,5.24,0,0,0,409.76,18.49Z"/><path class="cls-1" d="M229.42,54.58a8.28,8.28,0,0,1-6.19-2.51,8.79,8.79,0,0,1-2.45-6.41,8.79,8.79,0,0,1,2.45-6.41,8.3,8.3,0,0,1,6.19-2.49q7,0,8.24,6.23l-4,.63a4,4,0,0,0-4.06-3.09,3.87,3.87,0,0,0-3.1,1.42,5.58,5.58,0,0,0-1.19,3.71,5.54,5.54,0,0,0,1.19,3.69,3.86,3.86,0,0,0,3.1,1.4,4,4,0,0,0,2.51-.8,4.19,4.19,0,0,0,1.49-2.24l4,.63A7.29,7.29,0,0,1,234.9,53,8.85,8.85,0,0,1,229.42,54.58Z"/><path class="cls-1" d="M248.54,54.63a9.91,9.91,0,0,1-3.29-.54,9.16,9.16,0,0,1-2.82-1.59,7.44,7.44,0,0,1-2-2.82,10.22,10.22,0,0,1-.75-4,10.78,10.78,0,0,1,.49-3.3,7.77,7.77,0,0,1,1.33-2.51,8,8,0,0,1,2-1.73,8.81,8.81,0,0,1,2.41-1,10.77,10.77,0,0,1,5.29,0,8.68,8.68,0,0,1,2.41,1,7.94,7.94,0,0,1,2,1.73,7.6,7.6,0,0,1,1.34,2.51,11.42,11.42,0,0,1,0,6.62,7.64,7.64,0,0,1-3.3,4.29,8.56,8.56,0,0,1-2.41,1A10.51,10.51,0,0,1,248.54,54.63Zm0-3.8a4,4,0,0,0,3.13-1.39,5.6,5.6,0,0,0,1.19-3.78,5.52,5.52,0,0,0-1.2-3.75,4.26,4.26,0,0,0-6.27,0,5.53,5.53,0,0,0-1.19,3.76,5.57,5.57,0,0,0,1.2,3.78A3.94,3.94,0,0,0,248.54,50.83Z"/><path class="cls-1" d="M260.62,54.24V37.09h4.56v2.76a4.64,4.64,0,0,1,2-2.27,6.42,6.42,0,0,1,3.33-.82,6.13,6.13,0,0,1,5,2q1.62,2,1.62,6v9.45h-4.56v-9a5.53,5.53,0,0,0-.91-3.48,3.43,3.43,0,0,0-2.81-1.12,3.22,3.22,0,0,0-2.81,1.21,6.18,6.18,0,0,0-.88,3.65v8.76Z"/><path class="cls-1" d="M287.64,54.53a10.45,10.45,0,0,1-5.34-1.27,5.8,5.8,0,0,1-2.82-3.4l4.15-.69a3.3,3.3,0,0,0,1.52,1.57,5.33,5.33,0,0,0,2.52.56,4.68,4.68,0,0,0,2.36-.5,1.55,1.55,0,0,0,.84-1.39,1.29,1.29,0,0,0-.37-.93,2.64,2.64,0,0,0-1-.6,10,10,0,0,0-1.43-.4l-1.71-.34c-.59-.12-1.19-.25-1.78-.4a8.16,8.16,0,0,1-1.7-.6,6.12,6.12,0,0,1-1.43-.91,3.81,3.81,0,0,1-1-1.37,4.81,4.81,0,0,1-.35-2,4.43,4.43,0,0,1,2.1-3.71,9.14,9.14,0,0,1,5.28-1.41A9.81,9.81,0,0,1,292.32,38a5.48,5.48,0,0,1,2.73,3.15l-4.07.71a2.89,2.89,0,0,0-1.3-1.36,4.91,4.91,0,0,0-4.28,0,1.47,1.47,0,0,0-.79,1.32,1.24,1.24,0,0,0,.37.92,2.49,2.49,0,0,0,1,.58,8.41,8.41,0,0,0,1.44.36l1.72.3c.6.11,1.2.22,1.8.36a8.76,8.76,0,0,1,1.71.55,6.41,6.41,0,0,1,1.44.87,3.62,3.62,0,0,1,1,1.36,5,5,0,0,1-1.74,6A9.82,9.82,0,0,1,287.64,54.53Z"/><path class="cls-1" d="M304.55,54.6a6.11,6.11,0,0,1-5-2q-1.62-2-1.62-6.06V37.09h4.56v9a5.53,5.53,0,0,0,.87,3.46,3.42,3.42,0,0,0,2.84,1.1,3.22,3.22,0,0,0,2.8-1.2,6.26,6.26,0,0,0,.87-3.65V37.09h4.55V54.24h-4.55V51.52a4.63,4.63,0,0,1-2,2.25A6.33,6.33,0,0,1,304.55,54.6Z"/><path class="cls-1" d="M318.34,54.24V31.52h4.58V54.24Z"/><path class="cls-1" d="M334.68,54.5q-3.58,0-5.24-1.63t-1.65-5.47V40.53h-2.44V37.09h2.44V34l4.58-1v4.05h4.68v3.44h-4.68V47a5.11,5.11,0,0,0,.69,3.06,2.91,2.91,0,0,0,2.4.88c.14,0,.6-.06,1.37-.17l.6,3.46A11.42,11.42,0,0,1,334.68,54.5Z"/><path class="cls-1" d="M342.1,34.87a2.81,2.81,0,0,1-1.87-.62,2.34,2.34,0,0,1,0-3.39,3.21,3.21,0,0,1,3.74,0,2.06,2.06,0,0,1,.75,1.69,2.09,2.09,0,0,1-.75,1.69A2.81,2.81,0,0,1,342.1,34.87Zm-2.28,19.37V37.09h4.52V54.24Z"/><path class="cls-1" d="M348.24,54.24V37.09h4.55v2.76a4.61,4.61,0,0,1,2-2.27,6.42,6.42,0,0,1,3.33-.82,6.13,6.13,0,0,1,5,2q1.64,2,1.63,6v9.45H360.2v-9a5.47,5.47,0,0,0-.91-3.48,3.41,3.41,0,0,0-2.81-1.12,3.23,3.23,0,0,0-2.81,1.21,6.25,6.25,0,0,0-.88,3.65v8.76Z"/><path class="cls-1" d="M376.48,60.36a10.38,10.38,0,0,1-5.42-1.3,6.7,6.7,0,0,1-3-3.68l4.35-1A3.74,3.74,0,0,0,374,56.24a4.66,4.66,0,0,0,2.55.69,4.1,4.1,0,0,0,3.19-1.17A5.37,5.37,0,0,0,380.77,52V50.43a4.21,4.21,0,0,1-2.08,2.22,7.35,7.35,0,0,1-3.38.75,8,8,0,0,1-3-.55,6.83,6.83,0,0,1-4-4.19,11.22,11.22,0,0,1,0-7.12,7.07,7.07,0,0,1,1.6-2.62,6.92,6.92,0,0,1,2.4-1.56,8.16,8.16,0,0,1,3-.54,7.35,7.35,0,0,1,3.41.76,4.2,4.2,0,0,1,2.08,2.27V37.09h4.56V51.21q0,4.77-2.18,7T376.48,60.36Zm-3.06-11.61a4.06,4.06,0,0,0,3.15,1.32,4,4,0,0,0,3.13-1.33,5.28,5.28,0,0,0,1.19-3.65,5.25,5.25,0,0,0-1.19-3.62,4,4,0,0,0-3.16-1.33,4,4,0,0,0-3.12,1.33,5.2,5.2,0,0,0-1.2,3.62A5.24,5.24,0,0,0,373.42,48.75Z"/><path class="cls-2" d="M229.71,84.83a9.12,9.12,0,0,1-6.48-15.34A8.52,8.52,0,0,1,229.57,67a8.14,8.14,0,0,1,6.56,2.73A9.41,9.41,0,0,1,238,77h-12.7a4.18,4.18,0,0,0,4.51,4.41c1.95,0,3.23-.71,3.87-2.13l4.16.5a7.27,7.27,0,0,1-3,3.79A9.6,9.6,0,0,1,229.71,84.83ZM225.44,74h8.42a4,4,0,0,0-1.25-2.74,4.21,4.21,0,0,0-2.93-1,4.33,4.33,0,0,0-2.92,1A4.06,4.06,0,0,0,225.44,74Z"/><path class="cls-2" d="M241.31,84.49V67.35h4.55V70.1a4.62,4.62,0,0,1,2-2.26,6.49,6.49,0,0,1,3.34-.83,6.1,6.1,0,0,1,5,2q1.64,2,1.63,6v9.44h-4.57v-9a5.43,5.43,0,0,0-.91-3.48,3.38,3.38,0,0,0-2.81-1.12,3.23,3.23,0,0,0-2.81,1.21,6.16,6.16,0,0,0-.88,3.65v8.75Z"/><path class="cls-2" d="M269.55,90.61a10.46,10.46,0,0,1-5.42-1.29,6.7,6.7,0,0,1-3-3.68l4.35-1A3.75,3.75,0,0,0,267,86.5a4.66,4.66,0,0,0,2.55.69A4.1,4.1,0,0,0,272.77,86a5.37,5.37,0,0,0,1.07-3.72V80.69a4.28,4.28,0,0,1-2.08,2.22,7.35,7.35,0,0,1-3.38.75,8,8,0,0,1-3-.55,6.83,6.83,0,0,1-4-4.19,10.38,10.38,0,0,1-.58-3.58,10.25,10.25,0,0,1,.58-3.55,6.77,6.77,0,0,1,4-4.18,8.16,8.16,0,0,1,3-.54,7.51,7.51,0,0,1,3.41.76,4.27,4.27,0,0,1,2.08,2.27V67.35h4.56V81.46q0,4.79-2.18,7C274.77,89.89,272.55,90.61,269.55,90.61ZM266.49,79a4.06,4.06,0,0,0,3.15,1.32A4,4,0,0,0,272.77,79,5.3,5.3,0,0,0,274,75.34a5.24,5.24,0,0,0-1.19-3.61,4,4,0,0,0-3.16-1.34,4,4,0,0,0-3.12,1.34,6.11,6.11,0,0,0,0,7.27Z"/><path class="cls-2" d="M284.6,65.12a2.76,2.76,0,0,1-1.87-.62,2.33,2.33,0,0,1,0-3.38,3.17,3.17,0,0,1,3.74,0,2,2,0,0,1,.75,1.69,2.08,2.08,0,0,1-.75,1.68A2.81,2.81,0,0,1,284.6,65.12Zm-2.28,19.37V67.35h4.52V84.49Z"/><path class="cls-2" d="M290.74,84.49V67.35h4.55V70.1a4.59,4.59,0,0,1,2-2.26,6.43,6.43,0,0,1,3.33-.83,6.1,6.1,0,0,1,5,2q1.64,2,1.63,6v9.44H302.7v-9a5.43,5.43,0,0,0-.91-3.48A3.38,3.38,0,0,0,299,70.88a3.23,3.23,0,0,0-2.81,1.21,6.23,6.23,0,0,0-.88,3.65v8.75Z"/><path class="cls-2" d="M319.13,84.83a9.13,9.13,0,0,1-6.49-15.34A8.52,8.52,0,0,1,319,67a8.12,8.12,0,0,1,6.56,2.73,9.37,9.37,0,0,1,1.9,7.23H314.75a4.18,4.18,0,0,0,4.51,4.41q2.91,0,3.87-2.13l4.15.5a7.26,7.26,0,0,1-3,3.79A9.6,9.6,0,0,1,319.13,84.83ZM314.85,74h8.42A4,4,0,0,0,322,71.23a4.21,4.21,0,0,0-2.93-1,4.31,4.31,0,0,0-2.92,1A4.07,4.07,0,0,0,314.85,74Z"/><path class="cls-2" d="M339.06,84.83a9.12,9.12,0,0,1-6.49-15.34A8.52,8.52,0,0,1,338.91,67a8.12,8.12,0,0,1,6.56,2.73,9.37,9.37,0,0,1,1.9,7.23H334.68a4.18,4.18,0,0,0,4.51,4.41c1.94,0,3.23-.71,3.86-2.13l4.16.5a7.23,7.23,0,0,1-3,3.79A9.54,9.54,0,0,1,339.06,84.83ZM334.78,74h8.42A4,4,0,0,0,342,71.23a4.22,4.22,0,0,0-2.93-1,4.31,4.31,0,0,0-2.92,1A4.07,4.07,0,0,0,334.78,74Z"/><path class="cls-2" d="M350.65,84.49V67.35h4.56v2.58a4,4,0,0,1,.68-1.18,5,5,0,0,1,1.15-1,4.59,4.59,0,0,1,1.71-.61,7.29,7.29,0,0,1,2.25,0l-.45,4.32a4.48,4.48,0,0,0-4,.75c-.92.83-1.37,2.23-1.37,4.2v8.09Z"/><path class="cls-2" d="M369.78,84.79a10.45,10.45,0,0,1-5.34-1.28,5.81,5.81,0,0,1-2.82-3.39l4.15-.69A3.39,3.39,0,0,0,367.29,81a5.33,5.33,0,0,0,2.52.55,4.58,4.58,0,0,0,2.36-.5,1.54,1.54,0,0,0,.84-1.39,1.25,1.25,0,0,0-.37-.92,2.69,2.69,0,0,0-1-.61,10.59,10.59,0,0,0-1.44-.39l-1.7-.35c-.6-.11-1.2-.25-1.79-.39a9.5,9.5,0,0,1-1.7-.6,6.85,6.85,0,0,1-1.43-.91,3.77,3.77,0,0,1-1-1.38,4.73,4.73,0,0,1-.35-1.94,4.45,4.45,0,0,1,2.1-3.72A9.18,9.18,0,0,1,369.63,67a9.82,9.82,0,0,1,4.83,1.18,5.46,5.46,0,0,1,2.73,3.14l-4.07.72a2.85,2.85,0,0,0-1.3-1.36,4.28,4.28,0,0,0-2.07-.5,4.37,4.37,0,0,0-2.21.47,1.48,1.48,0,0,0-.79,1.33,1.25,1.25,0,0,0,.37.92,2.66,2.66,0,0,0,1,.58,10.42,10.42,0,0,0,1.44.36l1.71.3c.6.1,1.2.22,1.8.35a8.78,8.78,0,0,1,1.71.56,6.27,6.27,0,0,1,1.45.87,3.56,3.56,0,0,1,1,1.35,5,5,0,0,1-1.74,6A9.8,9.8,0,0,1,369.78,84.79Z"/></g></g></svg>